<svg width="68" height="79" viewBox="0 0 68 79" fill="none" xmlns="http://www.w3.org/2000/svg">
<path d="M62.1362 44.8006C62.1362 44.8006 58.0049 42.95 58.0049 34.6323C58.0049 26.3147 62.1362 24.3845 62.1362 24.3845M62.1362 44.8006C62.9704 44.8006 66 41.0124 66 34.6323C66 28.2523 63.4415 24.3845 62.1362 24.3845M62.1362 44.8006H54.0305C53.3405 44.8006 52.7812 45.36 52.7812 46.0499V46.0499V24.3845M62.1362 24.3845H52.7812M14.4909 24.3845H52.7812M14.4909 24.3845V44.8006M14.4909 24.3845C14.4909 24.3845 11.9144 24.3845 8.72564 24.3845C5.53684 24.3845 2.22803 27.615 2.10183 31.6561C1.97562 35.6972 1.91727 36.2745 2.22795 39.161C2.53863 42.0475 6.53619 44.8006 8.72564 44.8006C10.9151 44.8006 14.4909 44.8006 14.4909 44.8006M52.7812 24.3845C52.7812 24.3845 52.7812 69.6827 52.7812 73.1917C52.7812 76.7008 50.8232 76.0627 49.3003 76.0627C48.4887 76.0627 48.176 74.1084 48.0609 72.2826C47.9541 70.5892 46.6042 69.1805 44.9074 69.1805H17.7085C16.0516 69.1805 14.7085 70.5237 14.7085 72.1805V73.0627C14.7085 74.7196 16.0516 76.0627 17.7085 76.0627H42.5559M14.4909 53.0946V44.8006M62.1362 2.37333C63.3349 2.37333 66 5.65254 66 12.4617C66 19.2709 63.6594 22.3432 62.1362 22.3432M62.1362 2.37333C48.4173 2.37333 39.7075 2.21387 9.63418 2.21387C5.76967 2.21387 2.32836 5.39167 2.10174 9.83905C1.98778 12.0753 2.02889 14.2283 2.22795 16.6159C2.51926 20.1102 5.1835 22.63 8.22855 22.63C38.6318 22.63 45.5173 22.3432 62.1362 22.3432M62.1362 2.37333C62.1362 2.37333 58.0049 4.1164 58.0049 12.4617C58.0049 20.807 62.1362 22.3432 62.1362 22.3432" stroke="#E60013" stroke-width="4"/>
<path d="M43.3472 33.0032H24.6919C23.6317 33.0032 22.6149 33.4898 21.8652 34.3559C21.1155 35.222 20.6943 36.3967 20.6943 37.6216V59.1741C20.6943 60.3989 21.1155 61.5736 21.8652 62.4398C22.6149 63.3059 23.6317 63.7924 24.6919 63.7924H43.3472C43.5663 63.7889 43.7848 63.7632 44.0001 63.7155L44.3998 63.6077H44.4931H44.5597L45.0528 63.3922L45.226 63.2844C45.3593 63.1921 45.5058 63.1151 45.6391 63.0073C45.817 62.8561 45.9862 62.6915 46.1454 62.5147L46.2387 62.3761C46.3695 62.223 46.4898 62.0583 46.5985 61.8835L46.7184 61.6834C46.8115 61.512 46.8917 61.3317 46.9583 61.1446C46.9948 61.0707 47.026 60.9935 47.0516 60.9136C47.1182 60.7289 47.1582 60.5288 47.2115 60.3287V60.0977C47.287 59.7969 47.3317 59.4869 47.3447 59.1741V37.6216C47.3447 36.3967 46.9235 35.222 46.1739 34.3559C45.4242 33.4898 44.4074 33.0032 43.3472 33.0032ZM24.6919 60.7135C24.3385 60.7135 23.9996 60.5513 23.7497 60.2626C23.4998 59.9739 23.3594 59.5823 23.3594 59.1741V52.539L27.7434 47.4587C27.8672 47.3144 28.0146 47.1999 28.177 47.1218C28.3394 47.0436 28.5135 47.0034 28.6894 47.0034C28.8654 47.0034 29.0395 47.0436 29.2019 47.1218C29.3643 47.1999 29.5117 47.3144 29.6355 47.4587L41.0952 60.7135H24.6919ZM44.6797 59.1741C44.6784 59.3639 44.6468 59.5518 44.5864 59.7283C44.5559 59.8033 44.5203 59.8754 44.4798 59.9438C44.4441 60.009 44.404 60.0707 44.3599 60.1285L37.2309 51.8924L38.4035 50.5377C38.5274 50.3934 38.6748 50.2788 38.8371 50.2007C38.9995 50.1225 39.1737 50.0823 39.3496 50.0823C39.5255 50.0823 39.6997 50.1225 39.8621 50.2007C40.0244 50.2788 40.1718 50.3934 40.2957 50.5377L44.6797 55.6179V59.1741ZM44.6797 51.2612L42.1745 48.3978C41.412 47.5619 40.4008 47.0959 39.3496 47.0959C38.2984 47.0959 37.2872 47.5619 36.5247 48.3978L35.352 49.7525L31.5144 45.3189C30.7518 44.4829 29.7407 44.0169 28.6894 44.0169C27.6382 44.0169 26.6271 44.4829 25.8645 45.3189L23.3594 48.1823V37.6216C23.3594 37.2133 23.4998 36.8217 23.7497 36.533C23.9996 36.2443 24.3385 36.0821 24.6919 36.0821H43.3472C43.7006 36.0821 44.0395 36.2443 44.2894 36.533C44.5393 36.8217 44.6797 37.2133 44.6797 37.6216V51.2612ZM36.0183 39.161C35.623 39.161 35.2365 39.2965 34.9078 39.5502C34.5791 39.8039 34.323 40.1646 34.1717 40.5865C34.0204 41.0085 33.9808 41.4728 34.0579 41.9207C34.1351 42.3687 34.3254 42.7801 34.605 43.1031C34.8845 43.426 35.2406 43.6459 35.6284 43.735C36.0161 43.8242 36.418 43.7784 36.7832 43.6036C37.1484 43.4289 37.4606 43.1329 37.6802 42.7531C37.8999 42.3734 38.0171 41.9269 38.0171 41.4702C38.0171 40.8578 37.8065 40.2704 37.4317 39.8374C37.0568 39.4043 36.5484 39.161 36.0183 39.161Z" fill="#E60013"/>
</svg>
