<svg width="64" height="74" viewBox="0 0 64 74" fill="none" xmlns="http://www.w3.org/2000/svg">
<path d="M16.1663 29.7762C15.54 29.7762 14.9278 29.9906 14.407 30.3924C13.8863 30.7941 13.4804 31.3651 13.2407 32.0332C13.001 32.7013 12.9383 33.4365 13.0605 34.1457C13.1827 34.8549 13.4843 35.5064 13.9272 36.0177C14.37 36.5291 14.9343 36.8773 15.5486 37.0184C16.1628 37.1594 16.7995 37.087 17.3782 36.8103C17.9568 36.5336 18.4514 36.065 18.7993 35.4637C19.1473 34.8624 19.333 34.1555 19.333 33.4324C19.333 32.4627 18.9994 31.5327 18.4055 30.8471C17.8116 30.1614 17.0062 29.7762 16.1663 29.7762ZM54.1663 15.1513H50.9997V4.18259C50.9997 3.2129 50.666 2.28293 50.0722 1.59725C49.4783 0.911575 48.6729 0.526367 47.833 0.526367H16.1663C15.3265 0.526367 14.521 0.911575 13.9272 1.59725C13.3333 2.28293 12.9997 3.2129 12.9997 4.18259V15.1513H9.83301C7.31345 15.1513 4.89709 16.3069 3.11549 18.3639C1.3339 20.4209 0.333008 23.2109 0.333008 26.1199V48.0573C0.333008 50.9664 1.3339 53.7563 3.11549 55.8133C4.89709 57.8704 7.31345 59.026 9.83301 59.026H12.9997V69.9947C12.9997 70.9643 13.3333 71.8943 13.9272 72.58C14.521 73.2657 15.3265 73.6509 16.1663 73.6509H47.833C48.6729 73.6509 49.4783 73.2657 50.0722 72.58C50.666 71.8943 50.9997 70.9643 50.9997 69.9947V59.026H54.1663C56.6859 59.026 59.1023 57.8704 60.8839 55.8133C62.6654 53.7563 63.6663 50.9664 63.6663 48.0573V26.1199C63.6663 23.2109 62.6654 20.4209 60.8839 18.3639C59.1023 16.3069 56.6859 15.1513 54.1663 15.1513ZM19.333 7.83882H44.6663V15.1513H19.333V7.83882ZM44.6663 66.3384H19.333V51.7135H44.6663V66.3384ZM57.333 48.0573C57.333 49.027 56.9994 49.957 56.4055 50.6426C55.8116 51.3283 55.0062 51.7135 54.1663 51.7135H50.9997V48.0573C50.9997 47.0876 50.666 46.1576 50.0722 45.472C49.4783 44.7863 48.6729 44.4011 47.833 44.4011H16.1663C15.3265 44.4011 14.521 44.7863 13.9272 45.472C13.3333 46.1576 12.9997 47.0876 12.9997 48.0573V51.7135H9.83301C8.99316 51.7135 8.1877 51.3283 7.59384 50.6426C6.99997 49.957 6.66634 49.027 6.66634 48.0573V26.1199C6.66634 25.1503 6.99997 24.2203 7.59384 23.5346C8.1877 22.8489 8.99316 22.4637 9.83301 22.4637H54.1663C55.0062 22.4637 55.8116 22.8489 56.4055 23.5346C56.9994 24.2203 57.333 25.1503 57.333 26.1199V48.0573Z" fill="#E60013"/>
</svg>
